# xmcd
# Track frame offsets:
# 150
# 19242
# 37115
# 50432
# 71907
# 91697
# 107517
# 125240
# 136325
# 145360
# 159665
# 199142
# 224410
# 248772
#
# Disc length: 3510 seconds
# Revision: 0
# Processed by: cddbd v1.5.1PL0 Copyright (c) Steve Scherf et al.
# Submitted via: VisiTrax 2.9.7.197 - For more info visit www.synapsa.com
#
DISCID=d50db40e
DTITLE=ISS - Moment by Moment
DYEAR=1994
DGENRE=Vocal
TTITLE0=I Dare to be Different
TTITLE1=Moment by Moment
TTITLE2=Praise Him!
TTITLE3=I Surrender All
TTITLE4=By His Hand
TTITLE5=My Help Comes From the Lord
TTITLE6=Part the aters
TTITLE7=Celebration Morning
TTITLE8=Easter Song
TTITLE9=O Clap Your Hands
TTITLE10=Behold the Tabernacle of the Lord
TTITLE11=In Me
TTITLE12=They Could Not
TTITLE13=The :Lord Bless You and Keep You
EXTD=
EXTT0=
EXTT1=
EXTT2=
EXTT3=
EXTT4=
EXTT5=
EXTT6=
EXTT7=
EXTT8=
EXTT9=
EXTT10=
EXTT11=
EXTT12=
EXTT13=
PLAYORDER=
